<?xml version="1.0" encoding="UTF-8" standalone="no"?>
<!-- Created with Inkscape (http://www.inkscape.org/) -->

<svg
   xmlns:dc="http://purl.org/dc/elements/1.1/"
   xmlns:cc="http://creativecommons.org/ns#"
   xmlns:rdf="http://www.w3.org/1999/02/22-rdf-syntax-ns#"
   xmlns:svg="http://www.w3.org/2000/svg"
   xmlns="http://www.w3.org/2000/svg"
   xmlns:sodipodi="http://sodipodi.sourceforge.net/DTD/sodipodi-0.dtd"
   xmlns:inkscape="http://www.inkscape.org/namespaces/inkscape"
   width="444.0058mm"
   height="188.82077mm"
   viewBox="0 0 444.0058 188.82077"
   version="1.1"
   id="svg8"
   inkscape:version="0.92.5 (2060ec1f9f, 2020-04-08)"
   sodipodi:docname="Logo.svg"
   inkscape:export-filename="C:\Users\yeshu\OneDrive\Escritorio\Logo.png"
   inkscape:export-xdpi="96"
   inkscape:export-ydpi="96">
  <defs
     id="defs2" />
  <sodipodi:namedview
     id="base"
     pagecolor="#ffffff"
     bordercolor="#666666"
     borderopacity="1.0"
     inkscape:pageopacity="0.0"
     inkscape:pageshadow="2"
     inkscape:zoom="0.49497475"
     inkscape:cx="844.93723"
     inkscape:cy="450.96937"
     inkscape:document-units="mm"
     inkscape:current-layer="layer1"
     showgrid="false"
     fit-margin-top="0"
     fit-margin-left="-0.4"
     fit-margin-right="0"
     fit-margin-bottom="0"
     inkscape:window-width="1270"
     inkscape:window-height="1008"
     inkscape:window-x="1279"
     inkscape:window-y="0"
     inkscape:window-maximized="1" />
  <metadata
     id="metadata5">
    <rdf:RDF>
      <cc:Work
         rdf:about="">
        <dc:format>image/svg+xml</dc:format>
        <dc:type
           rdf:resource="http://purl.org/dc/dcmitype/StillImage" />
        <dc:title />
      </cc:Work>
    </rdf:RDF>
  </metadata>
  <g
     inkscape:label="Capa 1"
     inkscape:groupmode="layer"
     id="layer1"
     transform="translate(74.452545,-23.627758)">
    <path
       style="fill:#000000;stroke-width:3.67525125"
       d="m -63.823611,207.75727 c -2.953087,-2.46803 -5.369267,-8.17501 -5.369267,-12.68218 0,-9.70112 15.763238,-29.86937 26.315798,-33.66974 10.933477,-3.93749 9.268533,-8.2014 -8.969334,-22.97053 -18.558728,-15.02892 -25.432353,-31.90252 -22.261877,-54.64915 4.721262,-33.872502 29.02625,-65.005508 45.981593,-58.899289 10.445136,3.761682 14.778989,19.578005 13.334685,48.664621 l -1.107115,22.295836 -0.567551,-24.433786 c -0.312152,-13.438503 -2.224358,-26.811022 -4.249347,-29.716664 -11.21079,-16.086266 -36.911707,9.60524 -41.016542,41.001469 -3.015749,23.066483 2.608334,36.175783 23.068501,53.770813 19.583876,16.8414 27.517115,15.68038 41.8489834,-6.12455 5.3090827,-8.07739 12.5645266,-14.68619 16.1232026,-14.68619 9.168944,0 16.762508,18.63393 15.236556,37.38911 -0.69094,8.49231 -0.46741,15.44058 0.49674,15.44058 0.964161,0 7.245109,-6.3076 13.957645,-14.01689 l 12.204642,-14.0169 -8.977623,13.96629 c -4.937698,7.6814 -11.632174,15.17514 -14.876621,16.65271 -3.244448,1.47755 -8.52404,6.45314 -11.732415,11.05686 -11.974418,17.18199 -30.3786613,4.32311 -30.3786613,-21.22535 0,-7.12313 -1.7938328,-10.02658 -6.1947647,-10.02658 -5.088421,0 -5.848276,1.9809 -4.254666,11.09159 1.067031,6.10044 0.275649,16.85755 -1.758682,23.90476 -6.129683,21.23402 -32.752577,33.6683 -46.85388,21.88316 z m 30.053986,-14.8559 c 7.667595,-11.00219 9.915342,-26.18204 4.577804,-30.91544 -3.297479,-2.92422 -32.29205,16.89861 -35.453566,24.23868 -8.123005,18.85924 18.389974,24.59254 30.875762,6.67676 z m 61.568661,-27.03646 c 5.490269,-16.60154 3.502095,-36.64872 -3.988459,-40.21682 -6.045306,-2.87964 -16.2995719,15.53577 -16.2995719,29.27204 0,30.73308 11.6631089,37.02498 20.2880309,10.94478 z m 97.909694,36.14733 c -10.44781,-14.99148 -14.92474,-43.20352 -12.76554,-80.44401 4.19027,-72.270991 28.45518,-117.5669395 47.97555,-89.557276 4.87002,6.98795 6.02987,14.028763 5.62053,34.119151 l -0.51577,25.314257 -1.78535,-25.965844 c -3.00822,-43.751585 -17.8287,-43.266648 -31.64009,1.03525 -8.86585,28.43847 -10.79021,94.659192 -3.34715,115.181282 7.16436,19.75357 19.58515,23.00313 30.73501,8.04103 10.05647,-13.4949 13.48485,-23.19213 17.59982,-49.78131 2.21226,-14.29468 5.01379,-22.0956 7.93519,-22.0956 3.65469,0 4.31972,6.0855 3.48802,31.91797 -0.83817,26.03354 -0.18278,31.91791 3.55487,31.91791 2.78921,0 8.2166,-12.49048 13.86907,-31.91791 12.01743,-41.30369 17.75808,-42.26021 16.32418,-2.7199 -0.67573,18.63291 0.20554,30.31941 2.43549,32.29699 8.47205,7.51306 25.94092,-29.87321 28.85796,-61.7608 l 2.03799,-22.27806 -11.14688,-7.627288 c -6.13079,-4.195018 -10.31897,-8.815264 -9.30709,-10.267207 1.01187,-1.451944 3.59897,-0.5645 5.74911,1.971609 10.08063,11.891192 14.90556,8.115632 20.97517,-16.413408 6.19726,-25.044817 13.43051,-39.305146 17.19605,-33.901955 1.20576,1.730179 -0.77633,14.98477 -4.40476,29.454645 l -6.59704,26.30887 6.77892,-0.05654 c 3.72837,-0.03143 15.75324,-4.126374 26.72187,-9.100393 25.67445,-11.64265 48.75267,-12.667542 59.41957,-2.638772 4.44392,4.178055 8.07983,9.591236 8.07983,12.029271 0,2.438024 -4.06998,0.114912 -9.04434,-5.162013 -7.8544,-8.332449 -11.58841,-9.243943 -28.38046,-6.927725 -10.63483,1.466946 -25.54905,5.560173 -33.14276,9.096057 -7.59366,3.535885 -17.43855,7.562934 -21.87752,8.94894 -9.72775,3.037448 -11.77387,12.080499 -11.83029,52.285649 -0.0466,33.15252 7.03105,65.2121 12.62455,57.18601 1.82668,-2.62107 4.42925,-19.2491 5.78344,-36.95127 2.66383,-34.81989 9.8304,-49.64334 22.72256,-46.99955 10.39744,2.13223 9.7907,18.87002 -1.10286,30.42665 -10.11388,10.72941 -12.29273,25.77872 -4.99114,34.47387 5.73208,6.82606 16.80235,-3.17339 26.77278,-24.18306 3.95025,-8.32397 8.31179,-15.14809 9.69231,-15.1646 3.83031,-0.0439 -9.06477,24.25502 -19.65703,37.04394 -9.69245,11.70244 -19.41263,14.67369 -22.73902,6.95071 -3.32293,-7.71489 -6.39817,-4.81082 -11.65475,11.00619 -8.82989,26.56927 -20.22881,16.61052 -27.36418,-23.90708 l -4.21015,-23.90714 -6.67744,16.23934 c -12.64169,30.74408 -28.49827,31.4861 -33.20915,1.55398 l -2.20401,-14.00382 -3.36249,11.46583 c -7.65336,26.09746 -20.02429,34.17358 -26.35345,17.20435 -3.06733,-8.22388 -4.05831,-7.56111 -16.45687,11.0062 -15.3323,22.96067 -25.81336,25.57006 -37.18226,9.25686 z M 310.39499,126.1591 c -2.98515,-4.28337 -11.40929,6.96175 -11.40929,15.22983 0,5.66034 1.32181,5.14638 6.73289,-2.61799 3.70309,-5.31352 5.80744,-10.98886 4.6764,-12.61184 z"
       id="path3724"
       inkscape:connector-curvature="0" />
  </g>
</svg>
